<svg width="52" height="52" viewBox="0 0 52 52" fill="none" xmlns="http://www.w3.org/2000/svg">
<path d="M50.3193 18.3107L34.7307 15.9383L27.7622 1.14444C27.5719 0.739394 27.2588 0.411499 26.872 0.212191C25.9019 -0.289295 24.7231 0.12861 24.238 1.14444L17.2695 15.9383L1.68094 18.3107C1.25117 18.375 0.858228 18.5871 0.557385 18.9086C0.193682 19.3001 -0.00673464 19.8267 0.000172806 20.3728C0.00708025 20.9189 0.220747 21.4398 0.594223 21.8211L11.8728 33.336L9.20816 49.5957C9.14568 49.9739 9.18565 50.3629 9.32354 50.7186C9.46143 51.0742 9.69173 51.3823 9.98832 51.6079C10.2849 51.8335 10.6359 51.9675 11.0016 51.9948C11.3672 52.0221 11.7328 51.9416 12.057 51.7623L26.0001 44.0858L39.9433 51.7623C40.3239 51.9745 40.766 52.0452 41.1896 51.9681C42.2579 51.7752 42.9763 50.7144 42.7921 49.5957L40.1275 33.336L51.406 21.8211C51.713 21.506 51.9156 21.0946 51.977 20.6445C52.1428 19.5194 51.3937 18.4778 50.3193 18.3107Z" fill="#FFDA00"/>
</svg>
