<svg width="284" height="319" viewBox="0 0 284 319" fill="none" xmlns="http://www.w3.org/2000/svg">
<path d="M0 15C0 6.71574 6.71573 0 15 0H94.3548V106.333H0V15Z" fill="#FECC2F"/>
<rect y="106.334" width="94.3548" height="106.333" fill="#33BEB8"/>
<path d="M0 212.666H94.3548V318.999H15C6.71575 318.999 0 312.284 0 303.999V212.666Z" fill="#B2C225"/>
<path d="M189.02 0H268.374C276.659 0 283.374 6.71573 283.374 15V106.333H189.02V0Z" fill="#B2C225"/>
<rect x="189.02" y="106.334" width="94.3548" height="106.333" fill="#F6621F"/>
<path d="M189.02 212.666H283.374V303.999C283.374 312.284 276.659 318.999 268.374 318.999H189.02V212.666Z" fill="#33BEB8"/>
<rect x="94.1172" width="94.902" height="106.333" fill="#DB3838"/>
<rect x="94.1172" y="212.666" width="94.902" height="106.333" fill="#EE657A"/>
<g filter="url(#filter0_d_956_190)">
<rect x="43" y="98" width="202" height="123" rx="10" fill="#40A4D8"/>
</g>
<path d="M94.504 175.528C93.16 175.528 91.784 175.416 90.376 175.192C89 175 87.672 174.712 86.392 174.328C85.144 173.944 84.024 173.464 83.032 172.888C82.328 172.504 81.832 172.008 81.544 171.4C81.256 170.76 81.144 170.12 81.208 169.48C81.304 168.84 81.544 168.28 81.928 167.8C82.344 167.288 82.856 166.968 83.464 166.84C84.104 166.68 84.808 166.792 85.576 167.176C86.888 167.912 88.312 168.456 89.848 168.808C91.416 169.16 92.968 169.336 94.504 169.336C96.84 169.336 98.504 168.984 99.496 168.28C100.488 167.544 100.984 166.632 100.984 165.544C100.984 164.616 100.632 163.88 99.928 163.336C99.224 162.792 97.992 162.328 96.232 161.944L90.808 160.792C87.736 160.152 85.448 159.064 83.944 157.528C82.472 155.96 81.736 153.912 81.736 151.384C81.736 149.784 82.072 148.328 82.744 147.016C83.416 145.704 84.36 144.568 85.576 143.608C86.792 142.648 88.232 141.912 89.896 141.4C91.592 140.888 93.448 140.632 95.464 140.632C97.256 140.632 99.016 140.856 100.744 141.304C102.472 141.72 103.992 142.344 105.304 143.176C105.944 143.56 106.376 144.056 106.6 144.664C106.856 145.24 106.936 145.832 106.84 146.44C106.776 147.016 106.536 147.528 106.12 147.976C105.736 148.424 105.24 148.712 104.632 148.84C104.024 148.968 103.288 148.824 102.424 148.408C101.368 147.864 100.248 147.464 99.064 147.208C97.88 146.952 96.664 146.824 95.416 146.824C94.072 146.824 92.92 147 91.96 147.352C91.032 147.704 90.312 148.2 89.8 148.84C89.32 149.48 89.08 150.216 89.08 151.048C89.08 151.976 89.416 152.728 90.088 153.304C90.76 153.88 91.928 154.344 93.592 154.696L99.016 155.848C102.152 156.52 104.488 157.608 106.024 159.112C107.56 160.584 108.328 162.536 108.328 164.968C108.328 166.568 108.008 168.024 107.368 169.336C106.728 170.616 105.8 171.72 104.584 172.648C103.368 173.576 101.912 174.296 100.216 174.808C98.52 175.288 96.616 175.528 94.504 175.528ZM123.774 175.528C121.566 175.528 119.71 175.16 118.206 174.424C116.734 173.688 115.63 172.616 114.894 171.208C114.19 169.8 113.838 168.024 113.838 165.88V156.856H111.822C110.926 156.856 110.222 156.616 109.71 156.136C109.23 155.656 108.99 155 108.99 154.168C108.99 153.272 109.23 152.6 109.71 152.152C110.222 151.672 110.926 151.432 111.822 151.432H113.838V147.784C113.838 146.568 114.158 145.656 114.798 145.048C115.438 144.408 116.334 144.088 117.486 144.088C118.67 144.088 119.566 144.408 120.174 145.048C120.782 145.656 121.086 146.568 121.086 147.784V151.432H125.646C126.542 151.432 127.23 151.672 127.71 152.152C128.19 152.6 128.43 153.272 128.43 154.168C128.43 155 128.19 155.656 127.71 156.136C127.23 156.616 126.542 156.856 125.646 156.856H121.086V165.592C121.086 166.936 121.39 167.944 121.998 168.616C122.638 169.288 123.646 169.624 125.022 169.624C125.502 169.624 125.95 169.576 126.366 169.48C126.782 169.384 127.166 169.32 127.518 169.288C127.966 169.256 128.334 169.4 128.622 169.72C128.91 170.008 129.054 170.664 129.054 171.688C129.054 172.456 128.926 173.128 128.67 173.704C128.414 174.28 127.966 174.696 127.326 174.952C126.91 175.112 126.334 175.24 125.598 175.336C124.894 175.464 124.286 175.528 123.774 175.528ZM139.58 175.528C137.852 175.528 136.3 175.192 134.924 174.52C133.548 173.848 132.476 172.936 131.708 171.784C130.94 170.632 130.556 169.336 130.556 167.896C130.556 166.168 131.004 164.808 131.9 163.816C132.796 162.792 134.252 162.072 136.268 161.656C138.284 161.208 140.956 160.984 144.284 160.984H146.828V164.728H144.332C142.7 164.728 141.372 164.824 140.348 165.016C139.356 165.176 138.636 165.464 138.188 165.88C137.772 166.296 137.564 166.872 137.564 167.608C137.564 168.504 137.868 169.24 138.476 169.816C139.116 170.392 140.028 170.68 141.212 170.68C142.14 170.68 142.956 170.472 143.66 170.056C144.396 169.608 144.972 169.016 145.388 168.28C145.804 167.512 146.012 166.648 146.012 165.688V160.168C146.012 158.76 145.692 157.768 145.052 157.192C144.412 156.584 143.324 156.28 141.788 156.28C140.924 156.28 139.98 156.392 138.956 156.616C137.964 156.808 136.86 157.144 135.644 157.624C134.94 157.944 134.316 158.024 133.772 157.864C133.228 157.672 132.812 157.352 132.524 156.904C132.236 156.424 132.092 155.912 132.092 155.368C132.092 154.792 132.252 154.248 132.572 153.736C132.892 153.192 133.42 152.792 134.156 152.536C135.66 151.928 137.068 151.512 138.38 151.288C139.724 151.064 140.956 150.952 142.076 150.952C144.54 150.952 146.556 151.32 148.124 152.056C149.724 152.76 150.924 153.864 151.724 155.368C152.524 156.84 152.924 158.744 152.924 161.08V171.736C152.924 172.92 152.636 173.832 152.06 174.472C151.484 175.112 150.652 175.432 149.564 175.432C148.476 175.432 147.628 175.112 147.02 174.472C146.444 173.832 146.156 172.92 146.156 171.736V169.96L146.492 170.248C146.3 171.336 145.884 172.28 145.244 173.08C144.636 173.848 143.852 174.456 142.892 174.904C141.932 175.32 140.828 175.528 139.58 175.528ZM162.075 175.432C160.859 175.432 159.931 175.112 159.291 174.472C158.651 173.832 158.331 172.92 158.331 171.736V154.696C158.331 153.512 158.635 152.616 159.243 152.008C159.883 151.368 160.763 151.048 161.883 151.048C163.035 151.048 163.915 151.368 164.523 152.008C165.131 152.616 165.435 153.512 165.435 154.696V157.192H164.955C165.339 155.272 166.187 153.784 167.499 152.728C168.811 151.672 170.507 151.08 172.587 150.952C173.387 150.888 173.995 151.096 174.411 151.576C174.859 152.024 175.099 152.776 175.131 153.832C175.195 154.824 174.987 155.608 174.507 156.184C174.059 156.76 173.291 157.112 172.203 157.24L171.099 157.336C169.275 157.496 167.915 158.024 167.019 158.92C166.155 159.816 165.723 161.112 165.723 162.808V171.736C165.723 172.92 165.403 173.832 164.763 174.472C164.155 175.112 163.259 175.432 162.075 175.432ZM191.086 175.528C188.878 175.528 187.022 175.16 185.518 174.424C184.046 173.688 182.942 172.616 182.206 171.208C181.502 169.8 181.15 168.024 181.15 165.88V156.856H179.134C178.238 156.856 177.534 156.616 177.022 156.136C176.542 155.656 176.302 155 176.302 154.168C176.302 153.272 176.542 152.6 177.022 152.152C177.534 151.672 178.238 151.432 179.134 151.432H181.15V147.784C181.15 146.568 181.47 145.656 182.11 145.048C182.75 144.408 183.646 144.088 184.798 144.088C185.982 144.088 186.878 144.408 187.486 145.048C188.094 145.656 188.398 146.568 188.398 147.784V151.432H192.958C193.854 151.432 194.542 151.672 195.022 152.152C195.502 152.6 195.742 153.272 195.742 154.168C195.742 155 195.502 155.656 195.022 156.136C194.542 156.616 193.854 156.856 192.958 156.856H188.398V165.592C188.398 166.936 188.702 167.944 189.31 168.616C189.95 169.288 190.958 169.624 192.334 169.624C192.814 169.624 193.262 169.576 193.678 169.48C194.094 169.384 194.478 169.32 194.83 169.288C195.278 169.256 195.646 169.4 195.934 169.72C196.222 170.008 196.366 170.664 196.366 171.688C196.366 172.456 196.238 173.128 195.982 173.704C195.726 174.28 195.278 174.696 194.638 174.952C194.222 175.112 193.646 175.24 192.91 175.336C192.206 175.464 191.598 175.528 191.086 175.528ZM202.569 164.584C201.833 164.584 201.257 164.36 200.841 163.912C200.425 163.464 200.169 162.808 200.073 161.944L198.537 145.528C198.377 144.088 198.649 142.936 199.353 142.072C200.057 141.176 201.129 140.728 202.569 140.728C203.945 140.728 204.985 141.176 205.689 142.072C206.393 142.936 206.665 144.088 206.505 145.528L204.969 161.944C204.873 162.808 204.617 163.464 204.201 163.912C203.817 164.36 203.273 164.584 202.569 164.584ZM202.569 175.24C201.289 175.24 200.265 174.856 199.497 174.088C198.761 173.32 198.393 172.328 198.393 171.112C198.393 169.928 198.761 168.968 199.497 168.232C200.265 167.464 201.289 167.08 202.569 167.08C203.849 167.08 204.841 167.464 205.545 168.232C206.281 168.968 206.649 169.928 206.649 171.112C206.649 172.328 206.281 173.32 205.545 174.088C204.841 174.856 203.849 175.24 202.569 175.24Z" fill="white"/>
<defs>
<filter id="filter0_d_956_190" x="39" y="98" width="210" height="131" filterUnits="userSpaceOnUse" color-interpolation-filters="sRGB">
<feFlood flood-opacity="0" result="BackgroundImageFix"/>
<feColorMatrix in="SourceAlpha" type="matrix" values="0 0 0 0 0 0 0 0 0 0 0 0 0 0 0 0 0 0 127 0" result="hardAlpha"/>
<feOffset dy="4"/>
<feGaussianBlur stdDeviation="2"/>
<feComposite in2="hardAlpha" operator="out"/>
<feColorMatrix type="matrix" values="0 0 0 0 0 0 0 0 0 0 0 0 0 0 0 0 0 0 0.25 0"/>
<feBlend mode="normal" in2="BackgroundImageFix" result="effect1_dropShadow_956_190"/>
<feBlend mode="normal" in="SourceGraphic" in2="effect1_dropShadow_956_190" result="shape"/>
</filter>
</defs>
</svg>
